<svg width="40" height="42" viewBox="0 0 40 42" fill="none" xmlns="http://www.w3.org/2000/svg">
<circle cx="20" cy="22" r="20" fill="#FEBD2E"/>
<path d="M25.471 19.792C25.877 19.9467 26.196 20.198 26.428 20.546C26.66 20.894 26.776 21.2807 26.776 21.706C26.776 22.1507 26.66 22.547 26.428 22.895C26.196 23.2237 25.877 23.475 25.471 23.649L14.712 28.231C14.4993 28.3277 14.2577 28.376 13.987 28.376C13.6003 28.376 13.2717 28.26 13.001 28.028C12.7497 27.7767 12.624 27.4577 12.624 27.071C12.624 26.5683 12.8657 26.2107 13.349 25.998L23.586 21.706L13.349 17.414C12.8657 17.2013 12.624 16.8437 12.624 16.341C12.624 15.9543 12.7497 15.645 13.001 15.413C13.2717 15.1617 13.6003 15.036 13.987 15.036C14.219 15.036 14.4607 15.0843 14.712 15.181L25.471 19.792Z" fill="black"/>
<path d="M11 32.9H28.4V34.35H11V32.9Z" fill="black"/>
</svg>
