<svg width="40" height="41" viewBox="0 0 40 41" fill="none" xmlns="http://www.w3.org/2000/svg">
<g clip-path="url(#clip0)">
<path d="M40 20.5C40 25.0651 38.5437 29.2823 36.0815 32.6897C35.1764 33.9422 34.1348 35.0861 32.9797 36.0968C29.4864 39.1541 24.9542 41 20 41C17.1307 41 14.4034 40.381 11.9373 39.2655C10.8719 38.7844 9.85565 38.2104 8.89801 37.5535C8.24341 37.1059 7.61719 36.6189 7.02026 36.0968C5.86517 35.0861 4.82361 33.9422 3.91846 32.6897C1.4563 29.2823 0 25.0651 0 20.5C0 15.9349 1.4563 11.7177 3.91846 8.3103C5.46936 6.16414 7.41974 4.33923 9.65637 2.95132C12.6743 1.07761 16.214 0 20 0C20.0262 0 20.0522 0 20.0784 0.00093842C23.8351 0.0150146 27.3468 1.09013 30.3436 2.95132C32.5803 4.33923 34.5306 6.16414 36.0815 8.3103C38.5437 11.7177 40 15.9349 40 20.5V20.5Z" fill="#36435E"/>
<path d="M36.0815 5.99773V32.6897C35.1764 33.9422 34.1348 35.0861 32.9797 36.0968C29.4864 39.1541 24.9542 41 20 41C17.1307 41 14.4034 40.381 11.9373 39.2655C10.8719 38.7844 9.85565 38.2104 8.89801 37.5535C8.24341 37.1059 7.61719 36.6189 7.02026 36.0968C5.86517 35.0861 4.82361 33.9422 3.91846 32.6897V5.99773C3.91846 4.31515 5.24902 2.95132 6.89056 2.95132H33.1094C34.751 2.95132 36.0815 4.31515 36.0815 5.99773V5.99773Z" fill="#73B287"/>
<path d="M32.9797 11.7327V36.0968C29.4864 39.1541 24.9542 41 20 41C17.1307 41 14.4034 40.381 11.9373 39.2655C10.8719 38.7844 9.85565 38.2104 8.89801 37.5535C8.24341 37.1059 7.61719 36.6189 7.02026 36.0968V11.7327C7.02026 10.6717 7.85889 9.81239 8.89313 9.81239H31.1063C32.1405 9.81239 32.9797 10.6717 32.9797 11.7327V11.7327Z" fill="#E6E6E6"/>
<path d="M27.9589 3.77055V9.1605C27.9589 10.168 27.163 10.9838 26.1801 10.9838H13.8192C12.8365 10.9838 12.0406 10.168 12.0406 9.1605V3.77055C12.0406 2.76301 12.8365 1.94721 13.8192 1.94721H16.9311C17.4926 0.793274 18.6559 0 19.9996 0C20.2087 0 20.4135 0.019394 20.6118 0.0559921C21.5524 0.229286 22.3589 0.796715 22.8643 1.58405C22.8707 1.59406 22.8765 1.60313 22.882 1.61345C22.9302 1.68946 22.976 1.76797 23.0175 1.84837C23.0364 1.88371 23.0535 1.91718 23.0682 1.94721H26.1801C27.163 1.94721 27.9589 2.76301 27.9589 3.77055Z" fill="#F9A54B"/>
<path d="M27.959 3.77055V9.1605C27.959 10.168 27.1631 10.9838 26.1802 10.9838H15.044C14.061 10.9838 13.2651 10.168 13.2651 9.1605V3.77055C13.2651 2.76301 14.061 1.94721 15.044 1.94721H16.9312C17.4927 0.793274 18.6561 0 19.9998 0C20.2088 0 20.4136 0.019394 20.6119 0.0559921C21.5525 0.229286 22.3591 0.796715 22.8644 1.58405C22.8708 1.59406 22.8766 1.60313 22.8821 1.61345C22.9346 1.69947 22.9801 1.77892 23.0176 1.84837C23.0366 1.88371 23.0536 1.91718 23.0683 1.94721H26.1802C27.1631 1.94721 27.959 2.76301 27.959 3.77055Z" fill="#FFDA73"/>
<path d="M21.1835 2.86748C21.1835 3.53751 20.6534 4.08085 19.9998 4.08085C19.3461 4.08085 18.8163 3.53751 18.8163 2.86748C18.8163 2.19745 19.3461 1.65442 19.9998 1.65442C20.6534 1.65442 21.1835 2.19745 21.1835 2.86748Z" fill="#93BAC1"/>
<path d="M14.8571 21.1919H9.71429C9.26355 21.1919 8.89795 20.8175 8.89795 20.3552V15.0838C8.89795 14.6218 9.26355 14.247 9.71429 14.247H14.8571C15.3079 14.247 15.6735 14.6218 15.6735 15.0838V20.3552C15.6735 20.8175 15.3079 21.1919 14.8571 21.1919ZM10.5306 19.5184H14.0408V15.9205H10.5306V19.5184Z" fill="#55627A"/>
<path d="M14.8571 30.2289H9.71429C9.26355 30.2289 8.89795 29.8541 8.89795 29.3921V24.1204C8.89795 23.6584 9.26355 23.284 9.71429 23.284H14.8571C15.3079 23.284 15.6735 23.6584 15.6735 24.1204V29.3921C15.6735 29.8541 15.3079 30.2289 14.8571 30.2289V30.2289ZM10.5306 28.5554H14.0408V24.9572H10.5306V28.5554Z" fill="#55627A"/>
<path d="M14.8571 32.3206H9.71429C9.26355 32.3206 8.89795 32.6953 8.89795 33.1573V37.5535C9.85559 38.2104 10.8718 38.7844 11.9372 39.2655H14.8571C15.3076 39.2655 15.6735 38.8904 15.6735 38.4287V33.1573C15.6735 32.6953 15.3076 32.3206 14.8571 32.3206V32.3206ZM14.0408 37.592H10.5306V33.9941H14.0408V37.592Z" fill="#55627A"/>
<path d="M12.2449 29.4756C11.9733 29.4756 11.7179 29.3367 11.5659 29.1031L8.95361 25.0867C8.70337 24.7022 8.80469 24.1827 9.17975 23.9265C9.55511 23.67 10.0617 23.7738 10.3119 24.1586L12.1244 26.945L14.4459 21.9214C14.6387 21.5038 15.1255 21.3258 15.5332 21.5235C15.9406 21.7215 16.1143 22.2204 15.9214 22.638L12.9825 28.997C12.8568 29.2695 12.5974 29.4512 12.3041 29.4734C12.2843 29.4747 12.2645 29.4756 12.2449 29.4756V29.4756Z" fill="#F76C59"/>
<path d="M12.2449 20.3755C11.9733 20.3755 11.7179 20.2366 11.5659 20.0029L8.95361 15.9865C8.70337 15.6021 8.80469 15.0825 9.17975 14.8263C9.55511 14.5698 10.0617 14.6737 10.3119 15.0584L12.1244 17.8449L14.4459 12.8213C14.6387 12.4037 15.1255 12.2257 15.5332 12.4234C15.9406 12.6214 16.1143 13.1203 15.9214 13.5379L12.9825 19.8969C12.8568 20.1694 12.5974 20.3511 12.3041 20.3733C12.2843 20.3749 12.2645 20.3755 12.2449 20.3755Z" fill="#F76C59"/>
<path d="M12.2449 38.5758C11.9733 38.5758 11.7179 38.4369 11.5659 38.2032L8.95361 34.1868C8.70337 33.8024 8.80469 33.2828 9.17975 33.0266C9.55511 32.7701 10.0617 32.8739 10.3119 33.2587L12.1244 36.0452L14.4459 31.0218C14.6387 30.6039 15.1255 30.4259 15.5332 30.6236C15.9406 30.8216 16.1143 31.3206 15.9214 31.7382L12.9825 38.0972C12.8568 38.3696 12.5974 38.5517 12.3041 38.5736C12.2843 38.5748 12.2645 38.5758 12.2449 38.5758V38.5758Z" fill="#F76C59"/>
<path d="M17.4072 16.6991H30.5783V18.2053H17.4072V16.6991Z" fill="#55627A"/>
<path d="M17.4072 25.6951H30.5783V27.2009H17.4072V25.6951Z" fill="#55627A"/>
<path d="M17.4072 34.6907H30.5783V36.1969H17.4072V34.6907Z" fill="#55627A"/>
</g>
<defs>
<clipPath id="clip0">
<rect width="40" height="41" fill="white"/>
</clipPath>
</defs>
</svg>
