<svg width="53" height="50" viewBox="0 0 53 50" fill="none" xmlns="http://www.w3.org/2000/svg">
<path d="M26.5 50C40.5067 50 51.8613 39.2881 51.8613 26.0742C51.8613 12.8604 40.5067 2.14844 26.5 2.14844C12.4933 2.14844 1.13867 12.8604 1.13867 26.0742C1.13867 39.2881 12.4933 50 26.5 50Z" fill="#8BC727"/>
<path d="M45.1661 26.8329C44.7434 36.2018 36.5332 43.7012 26.5 43.7012C16.1973 43.7012 7.81543 35.7938 7.81543 26.0742C7.81543 20.0926 10.9909 14.7981 15.8342 11.61V9.85645C10.0928 13.2293 6.2627 19.2373 6.2627 26.0742C6.2627 36.6015 15.3411 45.166 26.5 45.166C37.3894 45.166 46.296 37.0097 46.7199 26.8329H45.1661Z" fill="white"/>
<path d="M36.7612 15.3424C36.5889 15.4664 36.3747 15.541 36.1418 15.541H29.5066C29.101 15.541 28.7232 15.7468 28.5205 16.0781L26.8986 18.7282C26.8154 18.8641 26.6663 18.9453 26.5 18.9453C26.3337 18.9453 26.1846 18.8641 26.1014 18.7281L24.4795 16.078C24.2768 15.7467 23.899 15.5409 23.4934 15.5409H16.8582C16.6253 15.5409 16.4111 15.4663 16.2388 15.3423C13.1324 17.9875 11.1797 21.8155 11.1797 26.0742C11.1797 34.0564 18.0388 40.5273 26.5 40.5273C34.9612 40.5273 41.8203 34.0564 41.8203 26.0742C41.8203 21.8155 39.8676 17.9875 36.7612 15.3424Z" fill="#26A6FE"/>
<path d="M15.3203 26.0742C15.3203 21.9718 17.1325 18.2691 20.0425 15.6387H16.8583C16.5947 15.6387 16.3527 15.5526 16.1607 15.4096C13.0997 18.052 11.1797 21.8515 11.1797 26.0742C11.1797 34.0564 18.0388 40.5273 26.5 40.5273C27.2022 40.5273 27.8931 40.4818 28.5703 40.3955C21.0884 39.4419 15.3203 33.3939 15.3203 26.0742Z" fill="#0593FC"/>
<path d="M36.1418 0H16.8584C16.2356 0 15.7307 0.476269 15.7307 1.06387V14.5748C15.7307 15.1623 16.2356 15.6387 16.8584 15.6387H23.4936C23.8634 15.6387 24.2051 15.8248 24.39 16.127L26.0119 18.777C26.2289 19.1316 26.7715 19.1316 26.9884 18.777L28.6103 16.127C28.7952 15.8248 29.137 15.6387 29.5068 15.6387H36.1418C36.7647 15.6387 37.2695 15.1624 37.2695 14.5748V1.06387C37.2694 0.476269 36.7646 0 36.1418 0V0Z" fill="#FED402"/>
<path d="M18.9434 14.5748V1.06387C18.9434 0.47627 19.4483 0 20.0711 0H16.8584C16.2357 0 15.7307 0.47627 15.7307 1.06387V14.5748C15.7307 15.1623 16.2356 15.6387 16.8584 15.6387H20.0711C19.4483 15.6387 18.9434 15.1623 18.9434 14.5748Z" fill="#FAC600"/>
<path d="M32.0821 5.14708H20.918C20.4891 5.14708 20.1416 4.81915 20.1416 4.41466C20.1416 4.01017 20.4891 3.68224 20.918 3.68224H32.0821C32.511 3.68224 32.8585 4.01017 32.8585 4.41466C32.8585 4.81915 32.5109 5.14708 32.0821 5.14708Z" fill="#BB5D4C"/>
<path d="M32.0821 8.55177H20.918C20.4891 8.55177 20.1416 8.22384 20.1416 7.81935C20.1416 7.41486 20.4891 7.08693 20.918 7.08693H32.0821C32.511 7.08693 32.8585 7.41486 32.8585 7.81935C32.8585 8.22384 32.5109 8.55177 32.0821 8.55177Z" fill="#BB5D4C"/>
<path d="M26.8106 11.9565H20.918C20.4891 11.9565 20.1416 11.6285 20.1416 11.224C20.1416 10.8196 20.4891 10.4916 20.918 10.4916H26.8106C27.2395 10.4916 27.587 10.8196 27.587 11.224C27.587 11.6285 27.2395 11.9565 26.8106 11.9565Z" fill="#BB5D4C"/>
<path d="M25.7538 32.4686H18.1152C17.7941 32.4686 17.5062 32.2822 17.3907 31.9995C17.2754 31.7168 17.3563 31.3963 17.5944 31.1931L24.0722 25.664C24.6475 25.1729 24.9774 24.4715 24.9774 23.7396C24.9774 22.3088 23.7434 21.1446 22.2267 21.1446H21.6422C20.1255 21.1446 18.8916 22.3087 18.8916 23.7396V24.3881C18.8916 24.7926 18.5441 25.1205 18.1152 25.1205C17.6864 25.1205 17.3389 24.7926 17.3389 24.3881V23.7396C17.3389 21.5011 19.2693 19.6798 21.6422 19.6798H22.2267C24.5997 19.6798 26.5301 21.501 26.5301 23.7396C26.5301 24.8846 26.014 25.9818 25.1139 26.7501L20.1305 31.0037H25.7537C26.1825 31.0037 26.53 31.3316 26.53 31.7361C26.53 32.1406 26.1826 32.4686 25.7538 32.4686V32.4686Z" fill="white"/>
<path d="M34.8848 27.5486H34.7833L34.7832 20.4095C34.7822 20.1973 34.6842 19.9873 34.4958 19.8432C34.1627 19.5886 33.6738 19.6368 33.4038 19.951L26.6432 27.8198C26.4547 28.0392 26.4167 28.3413 26.5455 28.5961C26.6744 28.851 26.947 29.0133 27.2464 29.0133H33.2307V31.7361C33.2307 32.1406 33.5782 32.4685 34.007 32.4685C34.4359 32.4685 34.7834 32.1406 34.7834 31.7361V29.0133H34.8848C35.3137 29.0133 35.6612 28.6854 35.6612 28.2809C35.6612 27.8764 35.3137 27.5486 34.8848 27.5486V27.5486ZM33.2306 27.5486H28.875L33.2306 22.4791V27.5486Z" fill="white"/>
<path d="M45.6438 22.7689L43.5973 26.503C43.4905 26.698 43.6405 26.9306 43.8732 26.9306H47.9662C48.1989 26.9306 48.3489 26.698 48.2421 26.503L46.1956 22.7689C46.0799 22.5577 45.7596 22.5577 45.6438 22.7689V22.7689Z" fill="#EAF6FF"/>
</svg>
