<svg width="193" height="201" viewBox="0 0 193 201" fill="none" xmlns="http://www.w3.org/2000/svg">
<path d="M178.528 104.994H149.12C147.555 92.3493 141.868 81.0324 133.514 72.5508L134.11 70.2118C134.792 67.5364 133.587 64.808 131.354 63.5388V5.88867C131.354 2.63655 128.822 0 125.699 0H67.3005C64.1778 0 61.6462 2.63655 61.6462 5.88867V63.5384C59.4124 64.8076 58.208 67.536 58.8896 70.2114L59.4855 72.5504C51.1319 81.0324 45.4448 92.3489 43.8793 104.993H14.4717C11.349 104.993 8.81738 107.63 8.81738 110.882V195.111C8.81738 198.363 11.349 201 14.4717 201H178.529C181.652 201 184.183 198.363 184.183 195.111V110.883C184.183 107.63 181.652 104.994 178.528 104.994V104.994ZM172.874 189.223H131.354V144.207H140.873C149.477 144.207 156.477 136.916 156.477 127.955C156.477 123.624 154.84 119.687 152.179 116.772H172.874V189.223ZM102.154 189.223V177.717C102.154 174.464 99.6228 171.828 96.5001 171.828C93.3774 171.828 90.8458 174.464 90.8458 177.717V189.223H72.9548V144.207H120.045V189.223H102.154ZM120.045 62.5911C117.844 61.451 115.557 60.4645 113.196 59.6475L113.297 58.577C113.452 56.923 112.93 55.2778 111.858 54.0466C110.786 52.8155 109.265 52.1136 107.67 52.1136H85.3313C83.7357 52.1136 82.2143 52.8159 81.1426 54.0466C80.0706 55.2778 79.5485 56.923 79.7042 58.577L79.8052 59.6475C77.4443 60.4649 75.157 61.451 72.9556 62.5911V11.7773H120.046V62.5911H120.045ZM99.6578 82.7358H93.3423L91.5673 63.8905H101.433L99.6578 82.7358ZM62.9697 86.2235C63.6448 88.855 65.9292 90.5933 68.428 90.5933C68.9079 90.5933 69.396 90.5289 69.8815 90.395C72.9002 89.5608 74.6975 86.3366 73.8965 83.1928L72.2492 76.7266C74.9293 74.728 77.8454 73.0525 80.9444 71.7519L82.5879 89.1996C82.8721 92.2146 85.3065 94.5136 88.2154 94.5136H104.784C107.693 94.5136 110.128 92.215 110.412 89.1996L112.055 71.7519C115.154 73.0525 118.07 74.728 120.751 76.7266L119.103 83.1928C118.302 86.3362 120.1 89.5608 123.118 90.395C123.604 90.5293 124.092 90.5933 124.572 90.5933C127.07 90.5933 129.355 88.855 130.03 86.2235C135.121 93.3598 138.162 102.17 138.244 111.703H54.7555C54.8377 102.17 57.879 93.3598 62.9697 86.2235V86.2235ZM47.8313 127.955C47.8313 125.488 49.7586 123.48 52.1274 123.48H140.873C143.242 123.48 145.169 125.488 145.169 127.955C145.169 130.422 143.242 132.429 140.873 132.429H52.1274C49.7586 132.429 47.8313 130.422 47.8313 127.955V127.955ZM20.126 116.771H40.8211C38.1605 119.687 36.5227 123.624 36.5227 127.955C36.5227 136.916 43.5231 144.206 52.1274 144.206H61.6462V189.223H20.126V116.771Z" fill="#E4DDDD"/>
<path d="M40.9834 154.089C37.8607 154.089 35.3291 156.725 35.3291 159.977V167.07C35.3291 170.322 37.8607 172.959 40.9834 172.959C44.1061 172.959 46.6377 170.322 46.6377 167.07V159.977C46.6377 156.725 44.1061 154.089 40.9834 154.089Z" fill="#E4DDDD"/>
<path d="M152.017 154.089C148.894 154.089 146.363 156.725 146.363 159.977V167.07C146.363 170.322 148.894 172.959 152.017 172.959C155.14 172.959 157.671 170.322 157.671 167.07V159.977C157.671 156.725 155.14 154.089 152.017 154.089Z" fill="#E4DDDD"/>
<path d="M88.1582 42.6218C91.2809 42.6218 93.8125 39.9853 93.8125 36.7331V30.5104C93.8125 27.2583 91.2809 24.6217 88.1582 24.6217C85.0355 24.6217 82.5039 27.2583 82.5039 30.5104V36.7331C82.5039 39.9853 85.0355 42.6218 88.1582 42.6218Z" fill="#E4DDDD"/>
<path d="M104.842 42.6218C107.965 42.6218 110.497 39.9853 110.497 36.7331V30.5104C110.497 27.2583 107.965 24.6217 104.842 24.6217C101.72 24.6217 99.188 27.2583 99.188 30.5104V36.7331C99.188 39.9853 101.72 42.6218 104.842 42.6218Z" fill="#E4DDDD"/>
</svg>
